<?xml version="1.0" encoding="UTF-8"?><svg id="Layer_1" xmlns="http://www.w3.org/2000/svg" viewBox="0 0 1339 1507"><path d="m261.952,1326.569c-.034,2.358-.087,4.342-.087,6.326-.005,37.165-.007,74.33.002,111.496,0,3.007-.107,5.969-.977,8.901-3.046,10.255-12.22,17.515-22.91,17.697-9.497.162-18.999.044-28.498.046-14.666.002-29.332.031-43.998-.031-2.481-.01-5.04-.098-7.426-.697-10.769-2.7-18.222-12.039-18.729-23.2-.068-1.497-.022-3-.022-4.499,0-36.665.004-73.33-.013-109.996,0-1.964.281-3.974-.421-5.833-1.817-1.143-3.698-.716-5.483-.721-12.999-.041-25.999.038-38.998-.069-2.969-.024-6.023-.279-8.885-1.018-13.935-3.598-23.625-15.814-24.18-30.192-.051-1.331-.019-2.666-.019-4,0-369.319-.013-738.638.012-1107.958.004-59.37,34.824-109.096,83.514-132.102,19.265-9.103,39.551-13.81,60.884-13.88,1.333-.004,2.667-.004,4-.004,306.988,0,613.977.009,920.965-.031,14.086-.002,27.913,1.533,41.491,5.323,53.177,14.844,93.702,59.068,103.861,113.336,1.722,9.2,2.604,18.468,2.604,27.821.002,369.153,0,738.305.02,1107.458,0,4.022-.213,7.996-1.333,11.871-4.646,16.073-19.284,23.637-30.745,23.462-12.83-.196-25.665-.049-38.498-.032-1.801.002-3.602.114-5.649.184-.22,1.219-.483,2.149-.537,3.091-.085,1.495-.034,2.999-.034,4.499,0,36.832-.008,73.664.012,110.496.002,3.182-.144,6.314-1.099,9.385-3.11,9.993-12.252,16.991-22.717,17.32-.999.031-2,.016-3,.017-22.999,0-45.998.021-68.997-.028-2.648-.006-5.381-.054-7.928-.679-10.768-2.642-18.265-11.995-18.801-23.142-.072-1.497-.025-2.999-.025-4.499,0-36.665.005-73.33-.017-109.996-.001-1.968.347-3.989-.562-6.138-.861-.157-1.805-.43-2.76-.479-1.663-.085-3.332-.037-4.999-.037-266.988,0-533.976-.001-800.964.011-2.464,0-4.963-.261-8.052.522Zm-77.831-385.447c5.549.766,943.666,1.181,967.365.481,1.131-.033,2.256-.234,3.411-.359,1.011-2.017,1.017-4.026,1.239-5.993,1.119-9.931,2.245-19.86,3.389-29.788,1.201-10.424,2.43-20.844,3.637-31.267,1.149-9.927,2.28-19.856,3.428-29.783,1.168-10.092,2.359-20.182,3.519-30.275,1.141-9.928,2.234-19.862,3.386-29.789,1.497-12.904,3.056-25.802,4.542-38.707,1.486-12.906,2.761-25.838,4.411-38.723,2.033-15.872,3.524-31.785,4.527-47.75.794-12.637,1.583-25.275,2.389-37.912.35-5.487.728-10.972,1.11-16.457.845-12.132,1.734-24.262,2.543-36.396.831-12.468,1.545-24.943,2.387-37.411,1.145-16.954,2.404-33.901,3.538-50.856,1.178-17.621,2.246-35.249,3.401-52.871.447-6.815,1.031-13.622,1.496-20.436.476-6.981.907-13.966,1.297-20.953.061-1.095-.201-2.208-.322-3.402-2.727-.725-5.23-.424-7.694-.424-351.64-.015-703.28-.014-1054.92-.013-1.833,0-3.668-.033-5.498.051-.789.036-1.566.333-2.658.581,0,1.449-.066,2.755.012,4.052.329,5.488.699,10.974,1.059,16.46,1.297,19.783,2.597,39.566,3.893,59.35.381,5.819.739,11.639,1.136,17.457.841,12.3,1.74,24.595,2.543,36.898.846,12.968,1.577,25.943,2.41,38.912,1.292,20.117,2.627,40.232,3.944,60.348.37,5.653.728,11.306,1.113,16.958.85,12.466,1.935,24.921,2.518,37.399.739,15.833,2.836,31.515,4.639,47.233,1.138,9.928,2.363,19.846,3.539,29.769,1.157,9.758,2.297,19.518,3.454,29.277,1.176,9.923,2.371,19.845,3.543,29.768,1.133,9.594,2.236,19.191,3.371,28.784,1.213,10.254,2.455,20.505,3.671,30.759,1.118,9.428,2.209,18.859,3.326,28.286,1.215,10.254,2.385,20.514,3.699,30.755.675,5.261.879,10.599,2.206,15.989Zm-52.09-618.719c3.211.084,5.849.214,8.487.214,351.479.009,702.957.009,1054.436.007,1.833,0,3.668.017,5.498-.068.801-.037,1.591-.313,2.635-.533.076-1.57.209-3.046.21-4.521.01-43.831.03-87.661-.036-131.492-.006-3.812-.286-7.68-.964-11.427-5.249-28.989-21.6-49.218-48.614-60.789-10.097-4.325-20.781-5.777-31.732-5.776-302.315.022-604.63.017-906.945.017-1.333,0-2.672-.08-3.999.016-4.317.311-8.684.364-12.935,1.088-39.815,6.776-66.332,40.968-66.235,78.16.114,43.164.024,86.328.032,129.492,0,1.649.093,3.298.163,5.612Zm62.354,695.552c.392-15.379-12.046-30.833-30.682-30.84-18.841-.007-30.839,15.483-30.883,30.747-.042,14.611,11.211,30.77,30.788,30.829,19.274.059,31.148-15.891,30.778-30.736Zm968.497-30.421c-15.235-.276-30.745,12.033-30.624,30.894.119,18.669,15.304,30.751,30.953,30.658,15.769-.094,30.726-12.39,30.632-30.985-.095-18.879-15.666-30.978-30.961-30.567Zm-25.878,116.052c.273,15.157,11.917,28.156,28.355,28.236,15.894.077,28.603-12.324,28.489-28.542-.12-17.069-13.885-28.504-28.795-28.25-15.867.27-27.923,12.944-28.049,28.556Zm-975.769,27.813c14.74.343,28.332-11.872,28.373-28.179.039-15.703-12.431-28.26-28.104-28.501-15.481-.239-28.716,12.596-28.658,28.483.057,15.596,13.017,28.49,28.389,28.197Zm924.25-49.851c-13.518-.295-27,10.526-27.15,26.885-.139,15.063,11.486,27.424,27.18,27.414,15.722-.01,27.307-12.412,27.15-27.445-.17-16.329-13.631-27.162-27.181-26.854Zm-817.188,26.931c.593-12.49-9.465-27.34-27.175-27.345-15.674-.005-27.043,12.463-27.116,27-.082,16.292,13.434,27.414,27.27,27.348,15.506-.074,27.418-13.2,27.021-27.002Z" fill="#cf102d" stroke-width="0"/></svg>